<mxfile host="app.diagrams.net" modified="2024-03-27T02:16:42.685Z" agent="Mozilla/5.0 (Windows NT 10.0; Win64; x64) AppleWebKit/537.36 (KHTML, like Gecko) Chrome/123.0.0.0 Safari/537.36" etag="cJX9D9_6vs3AeJYaD9Js" version="24.1.0" type="device">
  <diagram id="Ztxqn41ywcv8S2IHLmGi" name="Page-1">
    <mxGraphModel dx="1050" dy="565" grid="0" gridSize="10" guides="1" tooltips="1" connect="1" arrows="1" fold="1" page="1" pageScale="1" pageWidth="1100" pageHeight="850" math="0" shadow="0">
      <root>
        <mxCell id="0" />
        <mxCell id="1" parent="0" />
        <mxCell id="L8OuFkIVVMJZ7X_UQ5Tl-3" style="edgeStyle=orthogonalEdgeStyle;rounded=0;orthogonalLoop=1;jettySize=auto;html=1;exitX=0.5;exitY=1;exitDx=0;exitDy=0;entryX=0.5;entryY=0;entryDx=0;entryDy=0;" parent="1" source="L8OuFkIVVMJZ7X_UQ5Tl-1" target="L8OuFkIVVMJZ7X_UQ5Tl-2" edge="1">
          <mxGeometry relative="1" as="geometry" />
        </mxCell>
        <mxCell id="L8OuFkIVVMJZ7X_UQ5Tl-1" value="&lt;b&gt;Start&lt;/b&gt;" style="ellipse;whiteSpace=wrap;html=1;fillColor=#fff2cc;strokeColor=#d6b656;" parent="1" vertex="1">
          <mxGeometry x="440" y="30" width="90" height="50" as="geometry" />
        </mxCell>
        <mxCell id="L8OuFkIVVMJZ7X_UQ5Tl-5" style="edgeStyle=orthogonalEdgeStyle;rounded=0;orthogonalLoop=1;jettySize=auto;html=1;exitX=0.5;exitY=1;exitDx=0;exitDy=0;" parent="1" source="L8OuFkIVVMJZ7X_UQ5Tl-2" edge="1">
          <mxGeometry relative="1" as="geometry">
            <mxPoint x="485" y="170" as="targetPoint" />
          </mxGeometry>
        </mxCell>
        <mxCell id="L8OuFkIVVMJZ7X_UQ5Tl-2" value="&lt;b&gt;Login&lt;/b&gt;" style="rounded=0;whiteSpace=wrap;html=1;fillColor=#d5e8d4;strokeColor=#82b366;" parent="1" vertex="1">
          <mxGeometry x="425" y="110" width="120" height="40" as="geometry" />
        </mxCell>
        <mxCell id="L8OuFkIVVMJZ7X_UQ5Tl-4" value="" style="endArrow=none;html=1;rounded=0;" parent="1" edge="1">
          <mxGeometry width="50" height="50" relative="1" as="geometry">
            <mxPoint x="340" y="170" as="sourcePoint" />
            <mxPoint x="610" y="170" as="targetPoint" />
          </mxGeometry>
        </mxCell>
        <mxCell id="L8OuFkIVVMJZ7X_UQ5Tl-6" value="&lt;div&gt;&lt;b style=&quot;background-color: initial;&quot;&gt;Is Admin&lt;/b&gt;&lt;br&gt;&lt;/div&gt;&lt;div&gt;&lt;b&gt;?&lt;/b&gt;&lt;/div&gt;" style="rhombus;whiteSpace=wrap;html=1;fillColor=#76608a;strokeColor=#432D57;fontColor=#ffffff;" parent="1" vertex="1">
          <mxGeometry x="290" y="200" width="100" height="80" as="geometry" />
        </mxCell>
        <mxCell id="L8OuFkIVVMJZ7X_UQ5Tl-7" style="edgeStyle=orthogonalEdgeStyle;rounded=0;orthogonalLoop=1;jettySize=auto;html=1;exitX=0.5;exitY=1;exitDx=0;exitDy=0;entryX=0.5;entryY=0;entryDx=0;entryDy=0;" parent="1" edge="1">
          <mxGeometry relative="1" as="geometry">
            <mxPoint x="348" y="170" as="sourcePoint" />
            <mxPoint x="340" y="200" as="targetPoint" />
          </mxGeometry>
        </mxCell>
        <mxCell id="L8OuFkIVVMJZ7X_UQ5Tl-60" style="edgeStyle=orthogonalEdgeStyle;rounded=0;orthogonalLoop=1;jettySize=auto;html=1;exitX=0.5;exitY=1;exitDx=0;exitDy=0;" parent="1" source="L8OuFkIVVMJZ7X_UQ5Tl-8" edge="1">
          <mxGeometry relative="1" as="geometry">
            <mxPoint x="610" y="300" as="targetPoint" />
          </mxGeometry>
        </mxCell>
        <mxCell id="L8OuFkIVVMJZ7X_UQ5Tl-134" style="edgeStyle=orthogonalEdgeStyle;rounded=0;orthogonalLoop=1;jettySize=auto;html=1;exitX=1;exitY=0.5;exitDx=0;exitDy=0;entryX=1;entryY=0.25;entryDx=0;entryDy=0;" parent="1" source="L8OuFkIVVMJZ7X_UQ5Tl-8" target="L8OuFkIVVMJZ7X_UQ5Tl-2" edge="1">
          <mxGeometry relative="1" as="geometry">
            <Array as="points">
              <mxPoint x="740" y="230" />
              <mxPoint x="740" y="120" />
            </Array>
          </mxGeometry>
        </mxCell>
        <mxCell id="L8OuFkIVVMJZ7X_UQ5Tl-8" value="&lt;b&gt;Is&amp;nbsp;&lt;/b&gt;&lt;div&gt;&lt;b&gt;Contestant&lt;/b&gt;&lt;/div&gt;&lt;div&gt;&lt;b&gt;?&lt;/b&gt;&lt;/div&gt;" style="rhombus;whiteSpace=wrap;html=1;fillColor=#76608a;strokeColor=#432D57;fontColor=#ffffff;" parent="1" vertex="1">
          <mxGeometry x="560" y="200" width="100" height="60" as="geometry" />
        </mxCell>
        <mxCell id="L8OuFkIVVMJZ7X_UQ5Tl-10" value="" style="endArrow=classic;html=1;rounded=0;entryX=0.5;entryY=0;entryDx=0;entryDy=0;" parent="1" target="L8OuFkIVVMJZ7X_UQ5Tl-8" edge="1">
          <mxGeometry width="50" height="50" relative="1" as="geometry">
            <mxPoint x="610" y="170" as="sourcePoint" />
            <mxPoint x="660" y="120" as="targetPoint" />
          </mxGeometry>
        </mxCell>
        <mxCell id="L8OuFkIVVMJZ7X_UQ5Tl-15" style="edgeStyle=orthogonalEdgeStyle;rounded=0;orthogonalLoop=1;jettySize=auto;html=1;" parent="1" source="L8OuFkIVVMJZ7X_UQ5Tl-11" edge="1">
          <mxGeometry relative="1" as="geometry">
            <mxPoint x="330" y="370" as="targetPoint" />
          </mxGeometry>
        </mxCell>
        <mxCell id="L8OuFkIVVMJZ7X_UQ5Tl-11" value="&lt;b&gt;Admin dashboard&lt;/b&gt;" style="rounded=0;whiteSpace=wrap;html=1;fillColor=#d5e8d4;strokeColor=#82b366;" parent="1" vertex="1">
          <mxGeometry x="270" y="310" width="120" height="40" as="geometry" />
        </mxCell>
        <mxCell id="L8OuFkIVVMJZ7X_UQ5Tl-13" style="edgeStyle=orthogonalEdgeStyle;rounded=0;orthogonalLoop=1;jettySize=auto;html=1;exitX=0.5;exitY=1;exitDx=0;exitDy=0;entryX=0.593;entryY=0.005;entryDx=0;entryDy=0;entryPerimeter=0;" parent="1" source="L8OuFkIVVMJZ7X_UQ5Tl-6" target="L8OuFkIVVMJZ7X_UQ5Tl-11" edge="1">
          <mxGeometry relative="1" as="geometry" />
        </mxCell>
        <mxCell id="L8OuFkIVVMJZ7X_UQ5Tl-14" value="" style="endArrow=none;html=1;rounded=0;" parent="1" edge="1">
          <mxGeometry width="50" height="50" relative="1" as="geometry">
            <mxPoint x="160" y="370" as="sourcePoint" />
            <mxPoint x="370" y="370" as="targetPoint" />
          </mxGeometry>
        </mxCell>
        <mxCell id="L8OuFkIVVMJZ7X_UQ5Tl-19" style="edgeStyle=orthogonalEdgeStyle;rounded=0;orthogonalLoop=1;jettySize=auto;html=1;entryX=0.5;entryY=0;entryDx=0;entryDy=0;" parent="1" source="L8OuFkIVVMJZ7X_UQ5Tl-16" edge="1">
          <mxGeometry relative="1" as="geometry">
            <mxPoint x="155" y="510" as="targetPoint" />
          </mxGeometry>
        </mxCell>
        <mxCell id="GsxYr4gnAgeFuv2pGM6W-3" style="edgeStyle=orthogonalEdgeStyle;rounded=0;orthogonalLoop=1;jettySize=auto;html=1;entryX=0.012;entryY=0.796;entryDx=0;entryDy=0;entryPerimeter=0;" edge="1" parent="1" source="L8OuFkIVVMJZ7X_UQ5Tl-16" target="L8OuFkIVVMJZ7X_UQ5Tl-45">
          <mxGeometry relative="1" as="geometry">
            <mxPoint x="38.800048828125" y="829" as="targetPoint" />
            <Array as="points">
              <mxPoint x="47" y="440" />
              <mxPoint x="47" y="810" />
            </Array>
          </mxGeometry>
        </mxCell>
        <mxCell id="GsxYr4gnAgeFuv2pGM6W-4" value="&lt;b&gt;NO&lt;/b&gt;" style="edgeLabel;html=1;align=center;verticalAlign=middle;resizable=0;points=[];" vertex="1" connectable="0" parent="GsxYr4gnAgeFuv2pGM6W-3">
          <mxGeometry x="-0.5709" y="-2" relative="1" as="geometry">
            <mxPoint as="offset" />
          </mxGeometry>
        </mxCell>
        <mxCell id="L8OuFkIVVMJZ7X_UQ5Tl-16" value="&lt;div&gt;&lt;b&gt;Pending Approval?&lt;/b&gt;&lt;/div&gt;" style="rhombus;whiteSpace=wrap;html=1;fillColor=#76608a;strokeColor=#432D57;fontColor=#ffffff;" parent="1" vertex="1">
          <mxGeometry x="100" y="400" width="110" height="80" as="geometry" />
        </mxCell>
        <mxCell id="L8OuFkIVVMJZ7X_UQ5Tl-17" style="edgeStyle=orthogonalEdgeStyle;rounded=0;orthogonalLoop=1;jettySize=auto;html=1;exitX=0.5;exitY=1;exitDx=0;exitDy=0;entryX=0.5;entryY=0;entryDx=0;entryDy=0;" parent="1" edge="1">
          <mxGeometry relative="1" as="geometry">
            <mxPoint x="164" y="370" as="sourcePoint" />
            <mxPoint x="156" y="400" as="targetPoint" />
          </mxGeometry>
        </mxCell>
        <mxCell id="L8OuFkIVVMJZ7X_UQ5Tl-23" style="edgeStyle=orthogonalEdgeStyle;rounded=0;orthogonalLoop=1;jettySize=auto;html=1;exitX=0.5;exitY=1;exitDx=0;exitDy=0;entryX=0.5;entryY=0;entryDx=0;entryDy=0;" parent="1" source="L8OuFkIVVMJZ7X_UQ5Tl-21" target="L8OuFkIVVMJZ7X_UQ5Tl-22" edge="1">
          <mxGeometry relative="1" as="geometry" />
        </mxCell>
        <mxCell id="L8OuFkIVVMJZ7X_UQ5Tl-21" value="&lt;b&gt;Check activity&lt;/b&gt;" style="rounded=0;whiteSpace=wrap;html=1;fillColor=#d5e8d4;strokeColor=#82b366;" parent="1" vertex="1">
          <mxGeometry x="105" y="510" width="100" height="40" as="geometry" />
        </mxCell>
        <mxCell id="L8OuFkIVVMJZ7X_UQ5Tl-27" style="edgeStyle=orthogonalEdgeStyle;rounded=0;orthogonalLoop=1;jettySize=auto;html=1;entryX=0.5;entryY=0;entryDx=0;entryDy=0;" parent="1" source="L8OuFkIVVMJZ7X_UQ5Tl-22" edge="1">
          <mxGeometry relative="1" as="geometry">
            <mxPoint x="155" y="700" as="targetPoint" />
          </mxGeometry>
        </mxCell>
        <mxCell id="L8OuFkIVVMJZ7X_UQ5Tl-40" style="edgeStyle=orthogonalEdgeStyle;rounded=0;orthogonalLoop=1;jettySize=auto;html=1;exitX=1;exitY=0.5;exitDx=0;exitDy=0;entryX=0;entryY=0.5;entryDx=0;entryDy=0;" parent="1" source="L8OuFkIVVMJZ7X_UQ5Tl-22" target="L8OuFkIVVMJZ7X_UQ5Tl-39" edge="1">
          <mxGeometry relative="1" as="geometry" />
        </mxCell>
        <mxCell id="L8OuFkIVVMJZ7X_UQ5Tl-22" value="&lt;b&gt;All Okay?&lt;/b&gt;" style="rhombus;whiteSpace=wrap;html=1;fillColor=#76608a;strokeColor=#432D57;fontColor=#ffffff;" parent="1" vertex="1">
          <mxGeometry x="105" y="580" width="100" height="80" as="geometry" />
        </mxCell>
        <mxCell id="L8OuFkIVVMJZ7X_UQ5Tl-24" value="&lt;b&gt;YES&lt;/b&gt;" style="text;html=1;align=center;verticalAlign=middle;whiteSpace=wrap;rounded=0;" parent="1" vertex="1">
          <mxGeometry x="145" y="480" width="60" height="30" as="geometry" />
        </mxCell>
        <mxCell id="L8OuFkIVVMJZ7X_UQ5Tl-25" value="&lt;b&gt;YES&lt;/b&gt;" style="text;html=1;align=center;verticalAlign=middle;whiteSpace=wrap;rounded=0;" parent="1" vertex="1">
          <mxGeometry x="145" y="660" width="60" height="30" as="geometry" />
        </mxCell>
        <mxCell id="L8OuFkIVVMJZ7X_UQ5Tl-37" value="&lt;b&gt;NO&lt;/b&gt;" style="text;html=1;align=center;verticalAlign=middle;whiteSpace=wrap;rounded=0;" parent="1" vertex="1">
          <mxGeometry x="200" y="590" width="60" height="30" as="geometry" />
        </mxCell>
        <mxCell id="L8OuFkIVVMJZ7X_UQ5Tl-47" style="edgeStyle=orthogonalEdgeStyle;rounded=0;orthogonalLoop=1;jettySize=auto;html=1;entryX=0;entryY=0.5;entryDx=0;entryDy=0;" parent="1" source="L8OuFkIVVMJZ7X_UQ5Tl-38" target="L8OuFkIVVMJZ7X_UQ5Tl-45" edge="1">
          <mxGeometry relative="1" as="geometry">
            <Array as="points">
              <mxPoint x="150" y="795" />
            </Array>
          </mxGeometry>
        </mxCell>
        <mxCell id="L8OuFkIVVMJZ7X_UQ5Tl-38" value="&lt;b&gt;Send approval email&lt;/b&gt;" style="shape=parallelogram;perimeter=parallelogramPerimeter;whiteSpace=wrap;html=1;fixedSize=1;fillColor=#dae8fc;strokeColor=#6c8ebf;" parent="1" vertex="1">
          <mxGeometry x="70" y="700" width="160" height="40" as="geometry" />
        </mxCell>
        <mxCell id="L8OuFkIVVMJZ7X_UQ5Tl-46" style="edgeStyle=orthogonalEdgeStyle;rounded=0;orthogonalLoop=1;jettySize=auto;html=1;entryX=0.5;entryY=0;entryDx=0;entryDy=0;" parent="1" source="L8OuFkIVVMJZ7X_UQ5Tl-39" target="L8OuFkIVVMJZ7X_UQ5Tl-45" edge="1">
          <mxGeometry relative="1" as="geometry">
            <Array as="points">
              <mxPoint x="328" y="705" />
            </Array>
          </mxGeometry>
        </mxCell>
        <mxCell id="L8OuFkIVVMJZ7X_UQ5Tl-39" value="&lt;b&gt;Send rejection email&lt;/b&gt;" style="shape=parallelogram;perimeter=parallelogramPerimeter;whiteSpace=wrap;html=1;fixedSize=1;fillColor=#dae8fc;strokeColor=#6c8ebf;" parent="1" vertex="1">
          <mxGeometry x="250" y="600" width="160" height="40" as="geometry" />
        </mxCell>
        <mxCell id="L8OuFkIVVMJZ7X_UQ5Tl-45" value="&lt;b&gt;End&lt;/b&gt;" style="ellipse;whiteSpace=wrap;html=1;fillColor=#fff2cc;strokeColor=#d6b656;" parent="1" vertex="1">
          <mxGeometry x="285" y="770" width="85" height="50" as="geometry" />
        </mxCell>
        <mxCell id="GsxYr4gnAgeFuv2pGM6W-5" style="edgeStyle=orthogonalEdgeStyle;rounded=0;orthogonalLoop=1;jettySize=auto;html=1;entryX=1;entryY=0.5;entryDx=0;entryDy=0;" edge="1" parent="1" source="L8OuFkIVVMJZ7X_UQ5Tl-48" target="L8OuFkIVVMJZ7X_UQ5Tl-45">
          <mxGeometry relative="1" as="geometry">
            <mxPoint x="468.40008544921875" y="819.4000244140625" as="targetPoint" />
            <Array as="points">
              <mxPoint x="470" y="440" />
              <mxPoint x="470" y="816" />
              <mxPoint x="398" y="816" />
              <mxPoint x="398" y="795" />
            </Array>
          </mxGeometry>
        </mxCell>
        <mxCell id="GsxYr4gnAgeFuv2pGM6W-6" value="&lt;b&gt;NO&lt;/b&gt;" style="edgeLabel;html=1;align=center;verticalAlign=middle;resizable=0;points=[];" vertex="1" connectable="0" parent="GsxYr4gnAgeFuv2pGM6W-5">
          <mxGeometry x="0.0414" y="1" relative="1" as="geometry">
            <mxPoint as="offset" />
          </mxGeometry>
        </mxCell>
        <mxCell id="L8OuFkIVVMJZ7X_UQ5Tl-48" value="&lt;div&gt;&lt;b style=&quot;background-color: initial;&quot;&gt;Any&lt;/b&gt;&lt;/div&gt;&lt;div&gt;&lt;b style=&quot;background-color: initial;&quot;&gt;user violets&lt;/b&gt;&lt;br&gt;&lt;/div&gt;&lt;div&gt;&lt;b&gt;community&lt;/b&gt;&lt;/div&gt;&lt;div&gt;&lt;b&gt;guideline&lt;/b&gt;&lt;/div&gt;&lt;div&gt;&lt;b&gt;?&lt;/b&gt;&lt;/div&gt;" style="rhombus;whiteSpace=wrap;html=1;fillColor=#76608a;strokeColor=#432D57;fontColor=#ffffff;" parent="1" vertex="1">
          <mxGeometry x="300" y="395" width="135" height="90" as="geometry" />
        </mxCell>
        <mxCell id="L8OuFkIVVMJZ7X_UQ5Tl-50" value="" style="endArrow=classic;html=1;rounded=0;entryX=0.519;entryY=0.056;entryDx=0;entryDy=0;entryPerimeter=0;" parent="1" target="L8OuFkIVVMJZ7X_UQ5Tl-48" edge="1">
          <mxGeometry width="50" height="50" relative="1" as="geometry">
            <mxPoint x="370" y="370" as="sourcePoint" />
            <mxPoint x="370" y="390" as="targetPoint" />
          </mxGeometry>
        </mxCell>
        <mxCell id="GsxYr4gnAgeFuv2pGM6W-7" style="edgeStyle=orthogonalEdgeStyle;rounded=0;orthogonalLoop=1;jettySize=auto;html=1;entryX=0.953;entryY=0.204;entryDx=0;entryDy=0;entryPerimeter=0;" edge="1" parent="1" source="L8OuFkIVVMJZ7X_UQ5Tl-52" target="L8OuFkIVVMJZ7X_UQ5Tl-45">
          <mxGeometry relative="1" as="geometry">
            <mxPoint x="407.60003662109375" y="784.2000122070312" as="targetPoint" />
            <Array as="points">
              <mxPoint x="448" y="530" />
              <mxPoint x="448" y="667" />
              <mxPoint x="408" y="667" />
              <mxPoint x="408" y="780" />
            </Array>
          </mxGeometry>
        </mxCell>
        <mxCell id="L8OuFkIVVMJZ7X_UQ5Tl-52" value="&lt;b&gt;Send warning email&lt;/b&gt;" style="shape=parallelogram;perimeter=parallelogramPerimeter;whiteSpace=wrap;html=1;fixedSize=1;fillColor=#dae8fc;strokeColor=#6c8ebf;" parent="1" vertex="1">
          <mxGeometry x="280" y="510" width="160" height="40" as="geometry" />
        </mxCell>
        <mxCell id="L8OuFkIVVMJZ7X_UQ5Tl-53" style="edgeStyle=orthogonalEdgeStyle;rounded=0;orthogonalLoop=1;jettySize=auto;html=1;exitX=0.5;exitY=1;exitDx=0;exitDy=0;entryX=0.547;entryY=0.075;entryDx=0;entryDy=0;entryPerimeter=0;" parent="1" source="L8OuFkIVVMJZ7X_UQ5Tl-48" target="L8OuFkIVVMJZ7X_UQ5Tl-52" edge="1">
          <mxGeometry relative="1" as="geometry" />
        </mxCell>
        <mxCell id="L8OuFkIVVMJZ7X_UQ5Tl-56" value="&lt;b&gt;YES&lt;/b&gt;" style="text;html=1;align=center;verticalAlign=middle;whiteSpace=wrap;rounded=0;" parent="1" vertex="1">
          <mxGeometry x="360" y="480" width="60" height="30" as="geometry" />
        </mxCell>
        <mxCell id="L8OuFkIVVMJZ7X_UQ5Tl-59" value="" style="endArrow=none;html=1;rounded=0;" parent="1" edge="1">
          <mxGeometry width="50" height="50" relative="1" as="geometry">
            <mxPoint x="550" y="300" as="sourcePoint" />
            <mxPoint x="880" y="300" as="targetPoint" />
          </mxGeometry>
        </mxCell>
        <mxCell id="L8OuFkIVVMJZ7X_UQ5Tl-100" style="edgeStyle=orthogonalEdgeStyle;rounded=0;orthogonalLoop=1;jettySize=auto;html=1;exitX=0;exitY=0.25;exitDx=0;exitDy=0;entryX=0.5;entryY=1;entryDx=0;entryDy=0;" parent="1" source="L8OuFkIVVMJZ7X_UQ5Tl-61" target="L8OuFkIVVMJZ7X_UQ5Tl-94" edge="1">
          <mxGeometry relative="1" as="geometry">
            <Array as="points">
              <mxPoint x="480" y="340" />
              <mxPoint x="480" y="660" />
            </Array>
          </mxGeometry>
        </mxCell>
        <mxCell id="L8OuFkIVVMJZ7X_UQ5Tl-61" value="&lt;b&gt;Profile overview&lt;/b&gt;" style="rounded=0;whiteSpace=wrap;html=1;fillColor=#d5e8d4;strokeColor=#82b366;" parent="1" vertex="1">
          <mxGeometry x="500" y="330" width="120" height="40" as="geometry" />
        </mxCell>
        <mxCell id="L8OuFkIVVMJZ7X_UQ5Tl-65" style="edgeStyle=orthogonalEdgeStyle;rounded=0;orthogonalLoop=1;jettySize=auto;html=1;exitX=0;exitY=0.5;exitDx=0;exitDy=0;entryX=0;entryY=0.25;entryDx=0;entryDy=0;" parent="1" source="L8OuFkIVVMJZ7X_UQ5Tl-6" target="L8OuFkIVVMJZ7X_UQ5Tl-2" edge="1">
          <mxGeometry relative="1" as="geometry">
            <mxPoint x="211.46446609406735" y="236.46446609406735" as="sourcePoint" />
            <Array as="points">
              <mxPoint x="212" y="240" />
              <mxPoint x="212" y="120" />
            </Array>
          </mxGeometry>
        </mxCell>
        <mxCell id="L8OuFkIVVMJZ7X_UQ5Tl-66" value="&lt;b&gt;YES&lt;/b&gt;" style="text;html=1;align=center;verticalAlign=middle;whiteSpace=wrap;rounded=0;" parent="1" vertex="1">
          <mxGeometry x="330" y="280" width="60" height="30" as="geometry" />
        </mxCell>
        <mxCell id="L8OuFkIVVMJZ7X_UQ5Tl-101" style="edgeStyle=orthogonalEdgeStyle;rounded=0;orthogonalLoop=1;jettySize=auto;html=1;exitX=0.5;exitY=1;exitDx=0;exitDy=0;entryX=0.5;entryY=0;entryDx=0;entryDy=0;" parent="1" source="L8OuFkIVVMJZ7X_UQ5Tl-68" target="L8OuFkIVVMJZ7X_UQ5Tl-94" edge="1">
          <mxGeometry relative="1" as="geometry">
            <Array as="points">
              <mxPoint x="675" y="580" />
              <mxPoint x="600" y="580" />
            </Array>
          </mxGeometry>
        </mxCell>
        <mxCell id="L8OuFkIVVMJZ7X_UQ5Tl-68" value="&lt;b&gt;Team&lt;/b&gt;" style="rounded=0;whiteSpace=wrap;html=1;fillColor=#d5e8d4;strokeColor=#82b366;" parent="1" vertex="1">
          <mxGeometry x="640" y="330" width="70" height="40" as="geometry" />
        </mxCell>
        <mxCell id="L8OuFkIVVMJZ7X_UQ5Tl-103" style="edgeStyle=orthogonalEdgeStyle;rounded=0;orthogonalLoop=1;jettySize=auto;html=1;exitX=0.5;exitY=1;exitDx=0;exitDy=0;entryX=0.5;entryY=0;entryDx=0;entryDy=0;" parent="1" source="L8OuFkIVVMJZ7X_UQ5Tl-69" target="L8OuFkIVVMJZ7X_UQ5Tl-102" edge="1">
          <mxGeometry relative="1" as="geometry" />
        </mxCell>
        <mxCell id="L8OuFkIVVMJZ7X_UQ5Tl-69" value="&lt;b&gt;Setting&lt;/b&gt;" style="rounded=0;whiteSpace=wrap;html=1;fillColor=#d5e8d4;strokeColor=#82b366;" parent="1" vertex="1">
          <mxGeometry x="720" y="330" width="90" height="40" as="geometry" />
        </mxCell>
        <mxCell id="L8OuFkIVVMJZ7X_UQ5Tl-70" value="" style="endArrow=classic;html=1;rounded=0;entryX=0.43;entryY=0.055;entryDx=0;entryDy=0;entryPerimeter=0;" parent="1" target="L8OuFkIVVMJZ7X_UQ5Tl-61" edge="1">
          <mxGeometry width="50" height="50" relative="1" as="geometry">
            <mxPoint x="550" y="300" as="sourcePoint" />
            <mxPoint x="600" y="250" as="targetPoint" />
          </mxGeometry>
        </mxCell>
        <mxCell id="L8OuFkIVVMJZ7X_UQ5Tl-71" value="" style="endArrow=classic;html=1;rounded=0;entryX=0.43;entryY=0.055;entryDx=0;entryDy=0;entryPerimeter=0;" parent="1" edge="1">
          <mxGeometry width="50" height="50" relative="1" as="geometry">
            <mxPoint x="670" y="298" as="sourcePoint" />
            <mxPoint x="672" y="330" as="targetPoint" />
          </mxGeometry>
        </mxCell>
        <mxCell id="L8OuFkIVVMJZ7X_UQ5Tl-74" value="" style="endArrow=classic;html=1;rounded=0;entryX=0.43;entryY=0.055;entryDx=0;entryDy=0;entryPerimeter=0;" parent="1" edge="1">
          <mxGeometry width="50" height="50" relative="1" as="geometry">
            <mxPoint x="764" y="298" as="sourcePoint" />
            <mxPoint x="766" y="330" as="targetPoint" />
          </mxGeometry>
        </mxCell>
        <mxCell id="L8OuFkIVVMJZ7X_UQ5Tl-78" style="edgeStyle=orthogonalEdgeStyle;rounded=0;orthogonalLoop=1;jettySize=auto;html=1;entryX=0.5;entryY=0;entryDx=0;entryDy=0;" parent="1" source="L8OuFkIVVMJZ7X_UQ5Tl-75" target="L8OuFkIVVMJZ7X_UQ5Tl-77" edge="1">
          <mxGeometry relative="1" as="geometry" />
        </mxCell>
        <mxCell id="L8OuFkIVVMJZ7X_UQ5Tl-82" style="edgeStyle=orthogonalEdgeStyle;rounded=0;orthogonalLoop=1;jettySize=auto;html=1;exitX=1;exitY=0.5;exitDx=0;exitDy=0;entryX=0;entryY=0;entryDx=0;entryDy=0;" parent="1" source="L8OuFkIVVMJZ7X_UQ5Tl-75" edge="1">
          <mxGeometry relative="1" as="geometry">
            <mxPoint x="610" y="270" as="targetPoint" />
            <Array as="points">
              <mxPoint x="970" y="365" />
              <mxPoint x="970" y="270" />
            </Array>
          </mxGeometry>
        </mxCell>
        <mxCell id="L8OuFkIVVMJZ7X_UQ5Tl-75" value="&lt;div&gt;&lt;b style=&quot;background-color: initial;&quot;&gt;Set&amp;nbsp;&lt;/b&gt;&lt;/div&gt;&lt;div&gt;&lt;b style=&quot;background-color: initial;&quot;&gt;Contest&lt;/b&gt;&lt;br&gt;&lt;/div&gt;&lt;div&gt;&lt;b&gt;?&lt;/b&gt;&lt;/div&gt;" style="rhombus;whiteSpace=wrap;html=1;fillColor=#76608a;strokeColor=#432D57;fontColor=#ffffff;" parent="1" vertex="1">
          <mxGeometry x="830" y="325" width="100" height="80" as="geometry" />
        </mxCell>
        <mxCell id="L8OuFkIVVMJZ7X_UQ5Tl-76" value="" style="endArrow=classic;html=1;rounded=0;entryX=0.5;entryY=0;entryDx=0;entryDy=0;" parent="1" target="L8OuFkIVVMJZ7X_UQ5Tl-75" edge="1">
          <mxGeometry width="50" height="50" relative="1" as="geometry">
            <mxPoint x="880" y="300" as="sourcePoint" />
            <mxPoint x="930" y="250" as="targetPoint" />
          </mxGeometry>
        </mxCell>
        <mxCell id="L8OuFkIVVMJZ7X_UQ5Tl-126" style="edgeStyle=orthogonalEdgeStyle;rounded=0;orthogonalLoop=1;jettySize=auto;html=1;exitX=0.5;exitY=1;exitDx=0;exitDy=0;entryX=1;entryY=0.5;entryDx=0;entryDy=0;" parent="1" source="L8OuFkIVVMJZ7X_UQ5Tl-77" target="L8OuFkIVVMJZ7X_UQ5Tl-117" edge="1">
          <mxGeometry relative="1" as="geometry" />
        </mxCell>
        <mxCell id="L8OuFkIVVMJZ7X_UQ5Tl-77" value="&lt;b&gt;Problem setting history&lt;/b&gt;" style="rounded=0;whiteSpace=wrap;html=1;fillColor=#d5e8d4;strokeColor=#82b366;" parent="1" vertex="1">
          <mxGeometry x="835" y="430" width="90" height="40" as="geometry" />
        </mxCell>
        <mxCell id="L8OuFkIVVMJZ7X_UQ5Tl-79" value="&lt;b&gt;YES&lt;/b&gt;" style="text;html=1;align=center;verticalAlign=middle;whiteSpace=wrap;rounded=0;" parent="1" vertex="1">
          <mxGeometry x="870" y="400" width="60" height="30" as="geometry" />
        </mxCell>
        <mxCell id="L8OuFkIVVMJZ7X_UQ5Tl-83" value="&lt;b&gt;NO&lt;/b&gt;" style="text;html=1;align=center;verticalAlign=middle;whiteSpace=wrap;rounded=0;" parent="1" vertex="1">
          <mxGeometry x="960" y="290" width="60" height="30" as="geometry" />
        </mxCell>
        <mxCell id="L8OuFkIVVMJZ7X_UQ5Tl-84" value="&lt;b&gt;Personal information&lt;/b&gt;" style="rounded=0;whiteSpace=wrap;html=1;fillColor=#d5e8d4;strokeColor=#82b366;" parent="1" vertex="1">
          <mxGeometry x="550" y="405" width="100" height="40" as="geometry" />
        </mxCell>
        <mxCell id="L8OuFkIVVMJZ7X_UQ5Tl-85" value="&lt;b&gt;Activity history&lt;/b&gt;" style="rounded=0;whiteSpace=wrap;html=1;fillColor=#d5e8d4;strokeColor=#82b366;" parent="1" vertex="1">
          <mxGeometry x="550" y="460" width="100" height="40" as="geometry" />
        </mxCell>
        <mxCell id="L8OuFkIVVMJZ7X_UQ5Tl-86" value="&lt;b&gt;Achievement and badges&lt;/b&gt;" style="rounded=0;whiteSpace=wrap;html=1;fillColor=#d5e8d4;strokeColor=#82b366;" parent="1" vertex="1">
          <mxGeometry x="550" y="520" width="100" height="40" as="geometry" />
        </mxCell>
        <mxCell id="L8OuFkIVVMJZ7X_UQ5Tl-88" value="" style="endArrow=none;html=1;rounded=0;" parent="1" edge="1">
          <mxGeometry width="50" height="50" relative="1" as="geometry">
            <mxPoint x="520" y="540" as="sourcePoint" />
            <mxPoint x="520" y="370" as="targetPoint" />
          </mxGeometry>
        </mxCell>
        <mxCell id="L8OuFkIVVMJZ7X_UQ5Tl-90" value="" style="endArrow=classic;html=1;rounded=0;entryX=0;entryY=0.5;entryDx=0;entryDy=0;" parent="1" target="L8OuFkIVVMJZ7X_UQ5Tl-85" edge="1">
          <mxGeometry width="50" height="50" relative="1" as="geometry">
            <mxPoint x="520" y="480" as="sourcePoint" />
            <mxPoint x="570" y="430" as="targetPoint" />
          </mxGeometry>
        </mxCell>
        <mxCell id="L8OuFkIVVMJZ7X_UQ5Tl-91" value="" style="endArrow=classic;html=1;rounded=0;entryX=0;entryY=0.5;entryDx=0;entryDy=0;" parent="1" target="L8OuFkIVVMJZ7X_UQ5Tl-86" edge="1">
          <mxGeometry width="50" height="50" relative="1" as="geometry">
            <mxPoint x="520" y="540" as="sourcePoint" />
            <mxPoint x="570" y="490" as="targetPoint" />
          </mxGeometry>
        </mxCell>
        <mxCell id="L8OuFkIVVMJZ7X_UQ5Tl-93" value="" style="endArrow=classic;html=1;rounded=0;entryX=0;entryY=0.5;entryDx=0;entryDy=0;" parent="1" target="L8OuFkIVVMJZ7X_UQ5Tl-84" edge="1">
          <mxGeometry width="50" height="50" relative="1" as="geometry">
            <mxPoint x="520" y="425" as="sourcePoint" />
            <mxPoint x="570" y="380" as="targetPoint" />
          </mxGeometry>
        </mxCell>
        <mxCell id="L8OuFkIVVMJZ7X_UQ5Tl-133" style="edgeStyle=orthogonalEdgeStyle;rounded=0;orthogonalLoop=1;jettySize=auto;html=1;entryX=0.5;entryY=1;entryDx=0;entryDy=0;" parent="1" source="L8OuFkIVVMJZ7X_UQ5Tl-94" target="L8OuFkIVVMJZ7X_UQ5Tl-45" edge="1">
          <mxGeometry relative="1" as="geometry">
            <Array as="points">
              <mxPoint x="600" y="840" />
              <mxPoint x="328" y="840" />
            </Array>
          </mxGeometry>
        </mxCell>
        <mxCell id="L8OuFkIVVMJZ7X_UQ5Tl-94" value="" style="ellipse;whiteSpace=wrap;html=1;aspect=fixed;fillColor=#f8cecc;strokeColor=#b85450;" parent="1" vertex="1">
          <mxGeometry x="595" y="650" width="10" height="10" as="geometry" />
        </mxCell>
        <mxCell id="L8OuFkIVVMJZ7X_UQ5Tl-109" style="edgeStyle=orthogonalEdgeStyle;rounded=0;orthogonalLoop=1;jettySize=auto;html=1;exitX=0.5;exitY=1;exitDx=0;exitDy=0;entryX=0.5;entryY=0;entryDx=0;entryDy=0;" parent="1" source="L8OuFkIVVMJZ7X_UQ5Tl-102" target="L8OuFkIVVMJZ7X_UQ5Tl-106" edge="1">
          <mxGeometry relative="1" as="geometry" />
        </mxCell>
        <mxCell id="L8OuFkIVVMJZ7X_UQ5Tl-113" style="edgeStyle=orthogonalEdgeStyle;rounded=0;orthogonalLoop=1;jettySize=auto;html=1;exitX=0;exitY=0.5;exitDx=0;exitDy=0;entryX=1;entryY=0.5;entryDx=0;entryDy=0;" parent="1" source="L8OuFkIVVMJZ7X_UQ5Tl-102" target="L8OuFkIVVMJZ7X_UQ5Tl-94" edge="1">
          <mxGeometry relative="1" as="geometry">
            <Array as="points">
              <mxPoint x="690" y="445" />
              <mxPoint x="690" y="655" />
            </Array>
          </mxGeometry>
        </mxCell>
        <mxCell id="L8OuFkIVVMJZ7X_UQ5Tl-102" value="&lt;div&gt;&lt;b&gt;Update information&lt;/b&gt;&lt;/div&gt;&lt;div&gt;&lt;b&gt;?&lt;/b&gt;&lt;/div&gt;" style="rhombus;whiteSpace=wrap;html=1;fillColor=#76608a;strokeColor=#432D57;fontColor=#ffffff;" parent="1" vertex="1">
          <mxGeometry x="720" y="405" width="100" height="80" as="geometry" />
        </mxCell>
        <mxCell id="L8OuFkIVVMJZ7X_UQ5Tl-112" style="edgeStyle=orthogonalEdgeStyle;rounded=0;orthogonalLoop=1;jettySize=auto;html=1;exitX=0.5;exitY=1;exitDx=0;exitDy=0;entryX=0.5;entryY=0;entryDx=0;entryDy=0;" parent="1" source="L8OuFkIVVMJZ7X_UQ5Tl-106" target="L8OuFkIVVMJZ7X_UQ5Tl-110" edge="1">
          <mxGeometry relative="1" as="geometry" />
        </mxCell>
        <mxCell id="L8OuFkIVVMJZ7X_UQ5Tl-106" value="&lt;b&gt;Updated&amp;nbsp;&lt;/b&gt;&lt;div&gt;&lt;b&gt;information&lt;/b&gt;&lt;/div&gt;" style="shape=parallelogram;perimeter=parallelogramPerimeter;whiteSpace=wrap;html=1;fixedSize=1;fillColor=#dae8fc;strokeColor=#6c8ebf;" parent="1" vertex="1">
          <mxGeometry x="715" y="520" width="110" height="40" as="geometry" />
        </mxCell>
        <mxCell id="L8OuFkIVVMJZ7X_UQ5Tl-124" style="edgeStyle=orthogonalEdgeStyle;rounded=0;orthogonalLoop=1;jettySize=auto;html=1;exitX=0.5;exitY=1;exitDx=0;exitDy=0;entryX=0;entryY=0;entryDx=0;entryDy=0;" parent="1" source="L8OuFkIVVMJZ7X_UQ5Tl-110" target="L8OuFkIVVMJZ7X_UQ5Tl-117" edge="1">
          <mxGeometry relative="1" as="geometry">
            <Array as="points">
              <mxPoint x="791" y="625" />
            </Array>
          </mxGeometry>
        </mxCell>
        <mxCell id="L8OuFkIVVMJZ7X_UQ5Tl-110" value="&lt;b&gt;Successfully&lt;/b&gt;&lt;div&gt;&lt;b&gt;updated&lt;/b&gt;&lt;/div&gt;" style="rounded=0;whiteSpace=wrap;html=1;fillColor=#d5e8d4;strokeColor=#82b366;" parent="1" vertex="1">
          <mxGeometry x="720" y="585" width="100" height="40" as="geometry" />
        </mxCell>
        <mxCell id="L8OuFkIVVMJZ7X_UQ5Tl-117" value="" style="ellipse;whiteSpace=wrap;html=1;aspect=fixed;fillColor=#f8cecc;strokeColor=#b85450;" parent="1" vertex="1">
          <mxGeometry x="790" y="740" width="10" height="10" as="geometry" />
        </mxCell>
        <mxCell id="L8OuFkIVVMJZ7X_UQ5Tl-128" style="edgeStyle=orthogonalEdgeStyle;rounded=0;orthogonalLoop=1;jettySize=auto;html=1;" parent="1" source="L8OuFkIVVMJZ7X_UQ5Tl-117" edge="1">
          <mxGeometry relative="1" as="geometry">
            <mxPoint x="350" y="770" as="targetPoint" />
          </mxGeometry>
        </mxCell>
        <mxCell id="L8OuFkIVVMJZ7X_UQ5Tl-132" value="&lt;b&gt;YES&lt;/b&gt;" style="text;html=1;align=center;verticalAlign=middle;whiteSpace=wrap;rounded=0;" parent="1" vertex="1">
          <mxGeometry x="560" y="270" width="60" height="30" as="geometry" />
        </mxCell>
        <mxCell id="L8OuFkIVVMJZ7X_UQ5Tl-135" value="&lt;b&gt;NO&lt;/b&gt;" style="text;html=1;align=center;verticalAlign=middle;whiteSpace=wrap;rounded=0;" parent="1" vertex="1">
          <mxGeometry x="170" y="160" width="60" height="30" as="geometry" />
        </mxCell>
        <mxCell id="L8OuFkIVVMJZ7X_UQ5Tl-136" value="&lt;b&gt;NO&lt;/b&gt;" style="text;html=1;align=center;verticalAlign=middle;whiteSpace=wrap;rounded=0;" parent="1" vertex="1">
          <mxGeometry x="730" y="150" width="60" height="30" as="geometry" />
        </mxCell>
        <mxCell id="L8OuFkIVVMJZ7X_UQ5Tl-137" value="&lt;b&gt;YES&lt;/b&gt;" style="text;html=1;align=center;verticalAlign=middle;whiteSpace=wrap;rounded=0;" parent="1" vertex="1">
          <mxGeometry x="760" y="485" width="60" height="30" as="geometry" />
        </mxCell>
        <mxCell id="L8OuFkIVVMJZ7X_UQ5Tl-138" value="&lt;b&gt;NO&lt;/b&gt;" style="text;html=1;align=center;verticalAlign=middle;whiteSpace=wrap;rounded=0;" parent="1" vertex="1">
          <mxGeometry x="670" y="420" width="60" height="30" as="geometry" />
        </mxCell>
      </root>
    </mxGraphModel>
  </diagram>
</mxfile>
